<svg width="240" height="50" viewBox="0 0 240 50" fill="none" xmlns="http://www.w3.org/2000/svg">
<path d="M31.8107 31.1885C33.2874 33.0644 34.0765 35.3884 34.0468 37.7741C34.0468 41.3459 32.799 44.1737 30.3036 46.2573C27.8081 48.3408 24.3317 49.3826 19.8744 49.3826H0V6.75244H19.2304C23.5684 6.75244 26.9658 7.74512 29.4226 9.73048C31.8793 11.7158 33.1046 14.4066 33.0987 17.8029C33.0987 20.3121 32.4398 22.3957 31.1219 24.0537C29.7779 25.7405 27.9314 26.957 25.8493 27.5273C28.2166 27.9909 30.3349 29.2966 31.8107 31.2018V31.1885ZM10.3978 24.009H17.2135C18.9129 24.009 20.2232 23.634 21.1356 22.8839C22.0479 22.1338 22.504 21.0354 22.504 19.5754C22.504 18.1154 22.0568 17.0082 21.1356 16.2357C20.2143 15.4633 18.8995 15.0838 17.2135 15.0838H10.3978V24.009ZM22.1061 39.8234C23.0571 39.0346 23.5342 37.8916 23.5371 36.3944C23.5712 35.7331 23.4549 35.0727 23.197 34.4626C22.9391 33.8526 22.5463 33.3087 22.0479 32.8717C21.0506 32.0234 19.6866 31.5947 17.9424 31.5947H10.3978V41.0066H18.0632C19.8073 41.0066 21.149 40.6122 22.0881 39.8234" fill="#054E8B"/>
<path d="M40.8399 10.3643C40.2827 9.86467 39.8398 9.25121 39.5412 8.56556C39.2425 7.87991 39.0952 7.13812 39.1092 6.39058C39.0943 5.63636 39.241 4.88767 39.5395 4.19465C39.838 3.50164 40.2814 2.8803 40.8399 2.37223C42.0641 1.2754 43.6686 0.698724 45.3121 0.76489C46.9357 0.706144 48.518 1.28292 49.7217 2.37223C50.2803 2.8803 50.7236 3.50164 51.0221 4.19465C51.3206 4.88767 51.4673 5.63636 51.4525 6.39058C51.4664 7.13812 51.3191 7.87991 51.0205 8.56556C50.7218 9.25121 50.2789 9.86467 49.7217 10.3643C48.5197 11.4569 46.9366 12.0355 45.3121 11.9761C43.6677 12.0425 42.0626 11.464 40.8399 10.3643V10.3643ZM50.482 49.369H40.0797V15.4944H50.482V49.369Z" fill="#054E8B"/>
<path d="M64.5023 47.7306C61.8777 46.3444 59.7052 44.2374 58.2413 41.6584C56.7378 38.8191 55.9545 35.6552 55.96 32.4436C55.9654 29.232 56.7595 26.0707 58.2726 23.2365C59.7547 20.6418 61.9487 18.5242 64.5962 17.1331C67.3913 15.7374 70.4736 15.0107 73.5988 15.0107C76.724 15.0107 79.8062 15.7374 82.6013 17.1331C85.248 18.5254 87.4417 20.6427 88.925 23.2365C90.4479 26.0649 91.2424 29.2269 91.2369 32.438C91.2315 35.6491 90.4262 38.8084 88.8937 41.6316C87.389 44.2294 85.1736 46.345 82.5074 47.7306C79.719 49.1709 76.6173 49.901 73.4781 49.8558C70.3568 49.9069 67.2724 49.1762 64.5068 47.7306H64.5023ZM78.5495 38.6893C79.9478 37.2337 80.6484 35.1502 80.6514 32.4385C80.6544 29.7269 79.9747 27.6433 78.6121 26.1878C77.9675 25.5007 77.189 24.9526 76.3244 24.577C75.4598 24.2015 74.5274 24.0065 73.5845 24.004C72.6416 24.0014 71.7081 24.1915 70.8415 24.5624C69.9749 24.9334 69.1935 25.4774 68.5452 26.161C67.2066 27.5927 66.5372 29.6867 66.5372 32.443C66.5372 35.1993 67.1961 37.2829 68.5139 38.6938C69.1296 39.3989 69.8929 39.9603 70.75 40.3384C71.607 40.7164 72.5368 40.9018 73.4736 40.8815C74.4263 40.8942 75.3708 40.7058 76.2456 40.3288C77.1203 39.9518 77.9054 39.3946 78.5495 38.6938" fill="#054E8B"/>
<path d="M140.682 7.35938V49.369H135.145V18.0437L121.156 49.369H117.265L103.214 17.9857V49.369H97.677V7.35938H103.638L119.211 42.0868L134.778 7.35938H140.682Z" fill="#1B96D8"/>
<path d="M150.046 23.6606C151.348 21.1834 153.318 19.12 155.735 17.7045C158.176 16.2812 160.958 15.5466 163.785 15.5793C166.442 15.5132 169.068 16.1625 171.388 17.459C173.392 18.5625 175.058 20.1911 176.204 22.1694V16.0972H181.799V49.3646H176.204V43.1764C175.029 45.1979 173.33 46.8654 171.285 48.0029C168.982 49.3148 166.365 49.9769 163.713 49.9183C160.877 49.9593 158.087 49.201 155.664 47.7305C153.246 46.2486 151.288 44.1266 150.006 41.6003C148.593 38.8192 147.884 35.735 147.94 32.6171C147.872 29.5065 148.582 26.4281 150.006 23.6606H150.046ZM174.639 26.1208C173.7 24.3372 172.277 22.8534 170.534 21.839C168.803 20.8676 166.852 20.3547 164.867 20.3492C162.882 20.3438 160.928 20.8459 159.192 21.8077C157.458 22.8106 156.045 24.2847 155.118 26.0582C154.063 28.0811 153.539 30.3374 153.593 32.6171C153.538 34.9254 154.062 37.2109 155.118 39.2652C156.043 41.0551 157.455 42.5484 159.192 43.5738C160.908 44.5684 162.861 45.0821 164.845 45.0605C166.84 45.0806 168.804 44.5672 170.534 43.5738C172.282 42.553 173.705 41.0593 174.639 39.2652C175.689 37.2298 176.212 34.9641 176.159 32.6751C176.215 30.3972 175.692 28.1424 174.639 26.1208Z" fill="#1B96D8"/>
<path d="M200.864 17.0747C202.881 15.9676 205.16 15.4217 207.46 15.4942V21.2002H206.003C199.801 21.2002 196.699 24.5593 196.696 31.2773V49.3688H191.164V16.1014H196.696V21.5038C197.623 19.6529 199.071 18.1133 200.864 17.0747" fill="#1B96D8"/>
<path d="M232.46 49.3689L219.383 34.6796V49.3689H213.847V4.44824H219.383V30.8532L232.214 16.1014H239.942L224.249 32.6749L240 49.3689H232.46Z" fill="#1B96D8"/>
</svg>
