<svg width="180" height="38" viewBox="0 0 180 38" fill="none" xmlns="http://www.w3.org/2000/svg">
<path d="M23.858 23.391C24.9655 24.7979 25.5574 26.5409 25.5351 28.3302C25.5351 31.0091 24.5993 33.1299 22.7277 34.6926C20.8561 36.2553 18.2487 37.0366 14.9058 37.0366H0V5.06396H14.4228C17.6763 5.06396 20.2244 5.80847 22.0669 7.29749C23.9095 8.78652 24.8285 10.8046 24.824 13.3518C24.824 15.2337 24.3298 16.7964 23.3415 18.0399C22.3334 19.305 20.9485 20.2174 19.387 20.6451C21.1625 20.9928 22.7512 21.9721 23.858 23.401V23.391ZM7.79838 18.0064H12.9101C14.1847 18.0064 15.1674 17.7251 15.8517 17.1625C16.5359 16.6 16.878 15.7762 16.878 14.6812C16.878 13.5862 16.5426 12.7558 15.8517 12.1764C15.1607 11.5971 14.1746 11.3125 12.9101 11.3125H7.79838V18.0064ZM16.5795 29.8672C17.2929 29.2756 17.6506 28.4184 17.6529 27.2955C17.6784 26.7995 17.5912 26.3042 17.3977 25.8466C17.2043 25.3891 16.9097 24.9811 16.5359 24.6534C15.788 24.0172 14.7649 23.6957 13.4568 23.6957H7.79838V30.7546H13.5474C14.8555 30.7546 15.8617 30.4588 16.5661 29.8672" fill="#054E8B"/>
<path d="M30.6301 7.77321C30.2122 7.39851 29.88 6.93841 29.6561 6.42417C29.4321 5.90993 29.3216 5.35359 29.3321 4.79293C29.3209 4.22727 29.431 3.66575 29.6548 3.14599C29.8787 2.62623 30.2112 2.16022 30.6301 1.77917C31.5482 0.956552 32.7516 0.524043 33.9843 0.573668C35.2019 0.529608 36.3887 0.962189 37.2915 1.77917C37.7104 2.16022 38.0429 2.62623 38.2668 3.14599C38.4906 3.66575 38.6007 4.22727 38.5895 4.79293C38.6 5.35359 38.4895 5.90993 38.2655 6.42417C38.0416 6.93841 37.7094 7.39851 37.2915 7.77321C36.39 8.59265 35.2026 9.02664 33.9843 8.98206C32.751 9.03184 31.5472 8.59797 30.6301 7.77321V7.77321ZM37.8617 37.0268H30.0599V11.6208H37.8617V37.0268Z" fill="#054E8B"/>
<path d="M48.3768 35.7977C46.4083 34.7581 44.7789 33.1778 43.681 31.2436C42.5534 29.1141 41.9659 26.7411 41.97 24.3324C41.9741 21.9237 42.5696 19.5528 43.7045 17.4271C44.816 15.4811 46.4615 13.8929 48.4472 12.8496C50.5435 11.8028 52.8552 11.2578 55.1991 11.2578C57.543 11.2578 59.8547 11.8028 61.951 12.8496C63.936 13.8938 65.5813 15.4818 66.6937 17.4271C67.8359 19.5484 68.4318 21.9199 68.4277 24.3283C68.4236 26.7366 67.8197 29.1061 66.6703 31.2235C65.5417 33.1718 63.8802 34.7585 61.8805 35.7977C59.7892 36.8779 57.463 37.4255 55.1085 37.3916C52.7676 37.4299 50.4543 36.8819 48.3801 35.7977H48.3768ZM58.9121 29.0167C59.9609 27.9251 60.4863 26.3624 60.4886 24.3286C60.4908 22.2949 59.981 20.7322 58.9591 19.6406C58.4757 19.1253 57.8918 18.7142 57.2433 18.4325C56.5948 18.1509 55.8955 18.0046 55.1883 18.0027C54.4812 18.0008 53.7811 18.1434 53.1312 18.4216C52.4812 18.6998 51.8951 19.1078 51.4089 19.6205C50.4049 20.6943 49.9029 22.2648 49.9029 24.332C49.9029 26.3992 50.3971 27.9619 51.3854 29.0201C51.8472 29.5489 52.4197 29.97 53.0625 30.2535C53.7053 30.5371 54.4026 30.6761 55.1052 30.6609C55.8197 30.6704 56.5281 30.5291 57.1842 30.2464C57.8402 29.9636 58.4291 29.5457 58.9121 29.0201" fill="#054E8B"/>
<path d="M105.511 5.51953V37.0267H101.359V13.5328L90.8671 37.0267H87.9489L77.4102 13.4893V37.0267H73.2578V5.51953H77.7289L89.408 31.5651L101.084 5.51953H105.511Z" fill="#1B96D8"/>
<path d="M112.535 17.7456C113.511 15.8877 114.989 14.3401 116.801 13.2785C118.632 12.211 120.719 11.6601 122.839 11.6846C124.832 11.635 126.801 12.122 128.541 13.0944C130.044 13.922 131.293 15.1434 132.153 16.6272V12.073H136.349V37.0236H132.153V32.3824C131.272 33.8986 129.997 35.1492 128.464 36.0023C126.736 36.9863 124.773 37.4828 122.785 37.4388C120.658 37.4696 118.566 36.9009 116.748 35.798C114.935 34.6866 113.466 33.0951 112.505 31.2004C111.445 29.1145 110.913 26.8014 110.955 24.4629C110.904 22.13 111.436 19.8212 112.505 17.7456H112.535ZM130.979 19.5907C130.275 18.253 129.208 17.1402 127.9 16.3794C126.602 15.6508 125.139 15.2662 123.65 15.262C122.161 15.2579 120.696 15.6345 119.394 16.3559C118.094 17.1081 117.034 18.2136 116.338 19.5438C115.548 21.0609 115.154 22.7531 115.195 24.4629C115.153 26.1942 115.547 27.9083 116.338 29.449C117.033 30.7915 118.092 31.9114 119.394 32.6804C120.681 33.4264 122.146 33.8117 123.634 33.7955C125.13 33.8106 126.603 33.4255 127.9 32.6804C129.211 31.9149 130.279 30.7946 130.979 29.449C131.767 27.9225 132.159 26.2232 132.12 24.5065C132.161 22.798 131.769 21.1069 130.979 19.5907Z" fill="#1B96D8"/>
<path d="M150.648 12.8064C152.161 11.9761 153.87 11.5667 155.595 11.621V15.9005H154.502C149.851 15.9005 147.524 18.4198 147.522 23.4584V37.027H143.373V12.0764H147.522V16.1282C148.217 14.7401 149.303 13.5853 150.648 12.8064" fill="#1B96D8"/>
<path d="M174.345 37.0269L164.537 26.0099V37.0269H160.385V3.33643H164.537V23.1402L174.16 12.0763H179.956L168.187 24.5064L180 37.0269H174.345Z" fill="#1B96D8"/>
</svg>
