<svg width="115" height="115" viewBox="0 0 115 115" fill="none" xmlns="http://www.w3.org/2000/svg">
<path d="M14.8715 114.413H100.682C104.475 114.413 108.112 112.907 110.794 110.225C113.476 107.542 114.983 103.905 114.983 100.112V14.3017C114.983 10.5086 113.476 6.87095 110.794 4.18887C108.112 1.50678 104.475 0 100.682 0H14.8715C11.0785 0 7.44076 1.50678 4.75868 4.18887C2.07659 6.87095 0.569824 10.5086 0.569824 14.3017V100.112C0.569824 103.905 2.07659 107.542 4.75868 110.225C7.44076 112.907 11.0785 114.413 14.8715 114.413Z" fill="#0F2853"/>
<path d="M84.1451 71.7495C84.1451 63.8076 78.8848 56.6568 70.7373 54.9674C77.4859 52.983 82.5496 47.5216 82.5496 39.0791C82.5496 28.0579 74.1116 21.0054 59.9217 21.0054L31.5552 21.0813L31.4077 90.726H61.0211C75.7072 90.726 84.1451 83.2802 84.1451 71.7584" fill="white"/>
<path d="M55.0279 34.3508C54.173 34.5558 53.3778 34.9575 52.7055 35.5238C52.0332 36.0902 51.5024 36.8056 51.1552 37.6132C50.8081 38.4208 50.6541 39.2983 50.7057 40.1759C50.7573 41.0534 51.013 41.9068 51.4525 42.6682C52.5061 44.4166 53.4034 46.2547 54.134 48.1609C54.6879 49.641 54.9431 51.2162 54.8849 52.7955C54.7784 54.4321 54.3755 56.0358 53.696 57.5285C52.6791 59.7747 51.4123 61.8991 49.9195 63.8614C48.9378 65.1381 48.3408 66.6684 48.1988 68.2726C48.1892 68.3224 48.1727 68.3705 48.1497 68.4156V69.4302C48.2256 69.8771 48.2793 70.324 48.3731 70.7709C48.7261 72.3518 49.548 73.7893 50.7314 74.8953C51.9148 76.0013 53.4045 76.7244 55.0055 76.9698C55.2245 77.0011 55.4525 77.0458 55.667 77.0816H56.6681C57.115 77.0056 57.5619 76.952 57.9776 76.8581C59.5578 76.4875 60.9899 75.6499 62.0875 74.4542C63.1851 73.2586 63.8974 71.7602 64.1318 70.1542C64.1586 69.9307 64.2033 69.7073 64.239 69.4838V68.4693C64.1675 68.0447 64.1139 67.6156 64.0245 67.1911C63.8016 66.0892 63.3444 65.0481 62.6837 64.1385C61.4349 62.4582 60.3215 60.6813 59.3541 58.8246C58.5501 57.3069 57.9905 55.6719 57.696 53.9799C57.4368 52.2095 57.5975 50.4029 58.1653 48.7061C58.8377 46.7777 59.7126 44.9261 60.7754 43.1821C61.2485 42.4238 61.5816 41.5867 61.7586 40.7106C61.9828 39.2728 61.643 37.804 60.8103 36.6107C59.9776 35.4174 58.7162 34.5918 57.2893 34.3061L56.677 34.1899H55.8368C55.5642 34.2436 55.2871 34.2927 55.0189 34.3508" fill="#0F2853"/>
</svg>
