<svg width="87" height="86" viewBox="0 0 87 86" fill="none" xmlns="http://www.w3.org/2000/svg">
<path d="M11.6537 85.8101H76.0113C78.8561 85.8101 81.5843 84.68 83.5959 82.6684C85.6075 80.6569 86.7375 77.9286 86.7375 75.0838V10.7263C86.7375 7.88148 85.6075 5.15321 83.5959 3.14165C81.5843 1.13009 78.8561 0 76.0113 0H11.6537C8.80897 0 6.08069 1.13009 4.06913 3.14165C2.05757 5.15321 0.92749 7.88148 0.92749 10.7263V75.0838C0.92749 77.9286 2.05757 80.6569 4.06913 82.6684C6.08069 84.68 8.80897 85.8101 11.6537 85.8101Z" fill="#0F2853"/>
<path d="M63.609 53.8125C63.609 47.8561 59.6637 42.4929 53.5531 41.2259C58.6146 39.7376 62.4123 35.6415 62.4123 29.3097C62.4123 21.0438 56.0838 15.7544 45.4414 15.7544L24.1665 15.8114L24.0559 68.0449H46.266C57.2805 68.0449 63.609 62.4605 63.609 53.8192" fill="white"/>
<path d="M41.771 25.7632C41.1298 25.917 40.5334 26.2182 40.0292 26.643C39.525 27.0678 39.1269 27.6043 38.8665 28.21C38.6061 28.8157 38.4907 29.4739 38.5294 30.132C38.5681 30.7902 38.7598 31.4302 39.0894 32.0012C39.8796 33.3126 40.5526 34.6911 41.1006 36.1208C41.516 37.2309 41.7074 38.4123 41.6637 39.5968C41.5838 40.8242 41.2817 42.027 40.7721 43.1465C40.0094 44.8311 39.0593 46.4244 37.9397 47.8962C37.2034 48.8537 36.7557 50.0014 36.6492 51.2046C36.642 51.2419 36.6296 51.278 36.6123 51.3119V52.0727C36.6693 52.4079 36.7095 52.7431 36.7799 53.0783C37.0446 54.264 37.6611 55.3421 38.5486 56.1716C39.4361 57.0011 40.5534 57.5434 41.7542 57.7275C41.9185 57.751 42.0894 57.7845 42.2503 57.8113H43.0011C43.3363 57.7543 43.6715 57.7141 43.9833 57.6437C45.1684 57.3658 46.2425 56.7375 47.0657 55.8408C47.8889 54.9441 48.4231 53.8203 48.5989 52.6158C48.619 52.4482 48.6525 52.2806 48.6793 52.113V51.3521C48.6257 51.0336 48.5855 50.7119 48.5184 50.3934C48.3513 49.567 48.0083 48.7862 47.5129 48.104C46.5762 46.8438 45.7412 45.5111 45.0157 44.1186C44.4126 42.9803 43.993 41.7541 43.7721 40.485C43.5776 39.1572 43.6982 37.8023 44.124 36.5297C44.6283 35.0834 45.2845 33.6947 46.0816 32.3867C46.4365 31.818 46.6862 31.1901 46.819 30.5331C46.9871 29.4547 46.7323 28.3531 46.1078 27.4582C45.4832 26.5632 44.5372 25.944 43.4671 25.7297L43.0078 25.6426H42.3777C42.1732 25.6828 41.9654 25.7197 41.7643 25.7632" fill="#0F2853"/>
</svg>
