<svg width="28" height="24" viewBox="0 0 28 24" fill="none" xmlns="http://www.w3.org/2000/svg">
<path d="M23.5333 5.66732C23.3007 5.26428 22.9666 4.92916 22.5642 4.69525C22.1619 4.46134 21.7054 4.33679 21.24 4.33398H18V1.66732C18 1.3137 17.8595 0.974557 17.6095 0.724509C17.3594 0.47446 17.0203 0.333984 16.6667 0.333984H3.33334C2.62609 0.333984 1.94782 0.614936 1.44772 1.11503C0.947623 1.61513 0.666672 2.29341 0.666672 3.00065V16.334C0.667151 16.8016 0.790595 17.2609 1.02462 17.6658C1.25865 18.0706 1.59502 18.4068 2.00001 18.6407C1.95227 19.8783 2.39815 21.0843 3.23956 21.9932C4.08097 22.9021 5.24899 23.4396 6.48667 23.4873C7.72435 23.5351 8.9303 23.0892 9.83922 22.2478C10.7482 21.4063 11.2856 20.2383 11.3333 19.0007H15.4667C15.6141 20.1163 16.1619 21.1403 17.0082 21.882C17.8544 22.6238 18.9414 23.0327 20.0667 23.0327C21.192 23.0327 22.2789 22.6238 23.1252 21.882C23.9714 21.1403 24.5192 20.1163 24.6667 19.0007C25.3739 19.0007 26.0522 18.7197 26.5523 18.2196C27.0524 17.7195 27.3333 17.0412 27.3333 16.334V12.334C27.3312 12.0907 27.267 11.8521 27.1467 11.6407L23.5333 5.66732ZM18 7.00065H21.24L23.64 11.0007H18V7.00065ZM6.66667 20.334C6.27111 20.334 5.88443 20.2167 5.55553 19.9969C5.22663 19.7772 4.97029 19.4648 4.81891 19.0993C4.66754 18.7339 4.62793 18.3318 4.7051 17.9438C4.78227 17.5558 4.97275 17.1995 5.25246 16.9198C5.53216 16.6401 5.88853 16.4496 6.27649 16.3724C6.66445 16.2952 7.06659 16.3349 7.43204 16.4862C7.79749 16.6376 8.10985 16.8939 8.32961 17.2228C8.54937 17.5517 8.66667 17.9384 8.66667 18.334C8.66667 18.8644 8.45596 19.3731 8.08089 19.7482C7.70581 20.1233 7.1971 20.334 6.66667 20.334ZM20 20.334C19.6044 20.334 19.2178 20.2167 18.8889 19.9969C18.56 19.7772 18.3036 19.4648 18.1522 19.0993C18.0009 18.7339 17.9613 18.3318 18.0384 17.9438C18.1156 17.5558 18.3061 17.1995 18.5858 16.9198C18.8655 16.6401 19.2219 16.4496 19.6098 16.3724C19.9978 16.2952 20.3999 16.3349 20.7654 16.4862C21.1308 16.6376 21.4432 16.8939 21.6629 17.2228C21.8827 17.5517 22 17.9384 22 18.334C22 18.8644 21.7893 19.3731 21.4142 19.7482C21.0391 20.1233 20.5304 20.334 20 20.334Z" fill="#8493AE"/>
</svg>
