<svg width="32" height="32" viewBox="0 0 32 32" fill="none" xmlns="http://www.w3.org/2000/svg">
<path d="M16 28C19.1826 28 22.2348 26.7357 24.4853 24.4853C26.7357 22.2348 28 19.1826 28 16C28 12.8174 26.7357 9.76516 24.4853 7.51472C22.2348 5.26428 19.1826 4 16 4C12.8174 4 9.76516 5.26428 7.51472 7.51472C5.26428 9.76516 4 12.8174 4 16C4 19.1826 5.26428 22.2348 7.51472 24.4853C9.76516 26.7357 12.8174 28 16 28ZM17.395 13.882L15.895 20.9395C15.79 21.4495 15.9385 21.739 16.351 21.739C16.642 21.739 17.0815 21.634 17.38 21.37L17.248 21.994C16.8175 22.513 15.868 22.891 15.0505 22.891C13.996 22.891 13.5475 22.258 13.8385 20.9125L14.9455 15.7105C15.0415 15.271 14.9545 15.112 14.515 15.0055L13.8385 14.884L13.9615 14.3125L17.3965 13.882H17.395ZM16 12.25C15.6022 12.25 15.2206 12.092 14.9393 11.8107C14.658 11.5294 14.5 11.1478 14.5 10.75C14.5 10.3522 14.658 9.97064 14.9393 9.68934C15.2206 9.40804 15.6022 9.25 16 9.25C16.3978 9.25 16.7794 9.40804 17.0607 9.68934C17.342 9.97064 17.5 10.3522 17.5 10.75C17.5 11.1478 17.342 11.5294 17.0607 11.8107C16.7794 12.092 16.3978 12.25 16 12.25Z" fill="#8493AE"/>
</svg>
