<svg width="29" height="24" viewBox="0 0 29 24" fill="none" xmlns="http://www.w3.org/2000/svg">
<path d="M16.3333 0C13.1507 0 10.0985 1.26428 7.84805 3.51472C5.59761 5.76515 4.33333 8.8174 4.33333 12H0.333332L5.52 17.1867L5.61333 17.3733L11 12H7C7 6.84 11.1733 2.66667 16.3333 2.66667C21.4933 2.66667 25.6667 6.84 25.6667 12C25.6667 17.16 21.4933 21.3333 16.3333 21.3333C13.76 21.3333 11.4267 20.28 9.74667 18.5867L7.85333 20.48C8.96455 21.5973 10.286 22.4837 11.7414 23.0878C13.1969 23.6919 14.7575 24.002 16.3333 24C19.5159 24 22.5682 22.7357 24.8186 20.4853C27.069 18.2348 28.3333 15.1826 28.3333 12C28.3333 8.8174 27.069 5.76515 24.8186 3.51472C22.5682 1.26428 19.5159 4.74244e-08 16.3333 0ZM15 6.66667V13.3333L20.7067 16.72L21.6667 15.1067L17 12.3333V6.66667H15Z" fill="#8493AE"/>
</svg>
