<svg width="26" height="26" viewBox="0 0 26 26" fill="none" xmlns="http://www.w3.org/2000/svg">
<path d="M20.5158 18.1107C21.5447 16.6096 22.0994 14.8287 22.1 13L20.5158 18.1107ZM20.5158 18.1107L7.88919 5.48409C9.39015 4.45479 11.1712 3.90006 13 3.9L20.5158 18.1107ZM13 0.5C6.10706 0.5 0.5 6.10706 0.5 13C0.5 19.8929 6.10706 25.5 13 25.5C19.8929 25.5 25.5 19.8929 25.5 13C25.5 6.10706 19.8929 0.5 13 0.5ZM3.9 13C3.9 11.1051 4.4873 9.3489 5.48493 7.89004L18.1108 20.5159C16.6099 21.5454 14.8288 22.1001 13 22.1C7.98294 22.1 3.9 18.0171 3.9 13ZM13 3.9C18.017 3.90001 22.0999 7.98287 22.1 12.9999L13 3.9Z" fill="#8493AE" stroke="white"/>
</svg>
