<svg width="96" height="96" viewBox="0 0 96 96" fill="none" xmlns="http://www.w3.org/2000/svg">
<path d="M48 12C28.128 12 12 28.128 12 48C12 67.872 28.128 84 48 84C67.872 84 84 67.872 84 48C84 28.128 67.872 12 48 12ZM48 22.8C53.976 22.8 58.8 27.624 58.8 33.6C58.8 39.576 53.976 44.4 48 44.4C42.024 44.4 37.2 39.576 37.2 33.6C37.2 27.624 42.024 22.8 48 22.8ZM48 73.92C43.7227 73.92 39.5119 72.8615 35.743 70.8389C31.9741 68.8163 28.7644 65.8924 26.4 62.328C26.508 55.164 40.8 51.24 48 51.24C55.164 51.24 69.492 55.164 69.6 62.328C67.2356 65.8924 64.0259 68.8163 60.257 70.8389C56.4881 72.8615 52.2773 73.92 48 73.92Z" fill="#054E8B"/>
<path d="M58.8004 33.5998C58.8004 27.6238 53.9764 22.7998 48.0004 22.7998C42.0244 22.7998 37.2004 27.6238 37.2004 33.5998C37.2004 39.5758 42.0244 44.3998 48.0004 44.3998C53.9764 44.3998 58.8004 39.5758 58.8004 33.5998Z" fill="white"/>
<path d="M35.7434 70.8387C39.5123 72.8613 43.7231 73.9198 48.0004 73.9198C52.2777 73.9198 56.4885 72.8613 60.2574 70.8387C64.0262 68.8161 67.236 65.8922 69.6004 62.3278C69.4924 55.1638 55.1644 51.2398 48.0004 51.2398C40.8004 51.2398 26.5084 55.1638 26.4004 62.3278C28.7648 65.8922 31.9745 68.8161 35.7434 70.8387Z" fill="white"/>
<path d="M64.7116 80.1721L64.6994 80.1739C64.6087 80.1875 64.4963 80.2 64.371 80.2C63.8293 80.2 63.3345 79.9832 62.9609 79.6209L62.9537 79.6139L62.9537 79.6139C62.722 79.3847 62.5497 79.1025 62.4517 78.7917L63.4054 78.4909L62.4517 78.7917C62.354 78.4821 62.333 78.1534 62.3905 77.8338C62.3907 77.8327 62.3909 77.8315 62.3911 77.8303L63.275 72.7902L63.2771 72.7785L63.2794 72.7669C63.3271 72.5286 63.4417 72.2921 63.6369 72.0969L76.3539 59.3799C76.6053 59.1285 76.9377 59 77.274 59C77.6103 59 77.9427 59.1285 78.1941 59.3799L78.1943 59.3801L83.1794 64.3682C83.1795 64.3683 83.1795 64.3683 83.1796 64.3684C83.3004 64.489 83.3962 64.6322 83.4616 64.7899C83.5271 64.9476 83.5607 65.1167 83.5607 65.2875C83.5607 65.4583 83.5271 65.6274 83.4616 65.7851C83.3963 65.9426 83.3006 66.0856 83.1801 66.2061L64.7116 80.1721ZM64.7116 80.1721L64.7237 80.17L69.7697 79.285L69.7815 79.2829L69.7931 79.2806C70.0037 79.2385 70.2584 79.1345 70.4707 78.9155L83.1794 66.2068L64.7116 80.1721ZM83.04 80.72H60.96C59.8767 80.72 59 81.5967 59 82.68V83.76C59 84.4443 59.5557 85 60.24 85H83.76C84.4443 85 85 84.4443 85 83.76V82.68C85 81.5967 84.1233 80.72 83.04 80.72Z" fill="#054E8B" stroke="white" stroke-width="2"/>
</svg>
