<svg width="24" height="24" viewBox="0 0 24 24" fill="none" xmlns="http://www.w3.org/2000/svg">
<path d="M12 -1.90735e-05C5.37604 -1.90735e-05 3.8147e-05 5.37598 3.8147e-05 12C3.8147e-05 18.624 5.37604 24 12 24C18.624 24 24 18.624 24 12C24 5.37598 18.624 -1.90735e-05 12 -1.90735e-05ZM12 3.59998C13.992 3.59998 15.6 5.20798 15.6 7.19998C15.6 9.19198 13.992 10.8 12 10.8C10.008 10.8 8.40004 9.19198 8.40004 7.19998C8.40004 5.20798 10.008 3.59998 12 3.59998ZM12 20.64C10.5743 20.64 9.17066 20.2872 7.91437 19.6129C6.65809 18.9387 5.58817 17.9641 4.80004 16.776C4.83604 14.388 9.60004 13.08 12 13.08C14.388 13.08 19.164 14.388 19.2 16.776C18.4119 17.9641 17.342 18.9387 16.0857 19.6129C14.8294 20.2872 13.4258 20.64 12 20.64Z" fill="#8493AE"/>
</svg>
