<svg width="33" height="32" viewBox="0 0 33 32" fill="none" xmlns="http://www.w3.org/2000/svg">
<path d="M16.168 4C9.54397 4 4.16797 9.376 4.16797 16C4.16797 22.624 9.54397 28 16.168 28C22.792 28 28.168 22.624 28.168 16C28.168 9.376 22.792 4 16.168 4ZM16.168 7.6C18.16 7.6 19.768 9.208 19.768 11.2C19.768 13.192 18.16 14.8 16.168 14.8C14.176 14.8 12.568 13.192 12.568 11.2C12.568 9.208 14.176 7.6 16.168 7.6ZM16.168 24.64C14.7422 24.64 13.3386 24.2872 12.0823 23.613C10.826 22.9388 9.7561 21.9641 8.96797 20.776C9.00397 18.388 13.768 17.08 16.168 17.08C18.556 17.08 23.332 18.388 23.368 20.776C22.5798 21.9641 21.5099 22.9388 20.2536 23.613C18.9973 24.2872 17.5937 24.64 16.168 24.64Z" fill="#8493AE"/>
<path d="M19.7688 11.1996C19.7688 9.20761 18.1607 7.59961 16.1687 7.59961C14.1767 7.59961 12.5688 9.20761 12.5688 11.1996C12.5688 13.1916 14.1767 14.7996 16.1687 14.7996C18.1607 14.7996 19.7688 13.1916 19.7688 11.1996Z" fill="white"/>
<path d="M12.0831 23.6126C13.3394 24.2868 14.743 24.6396 16.1687 24.6396C17.5945 24.6396 18.9981 24.2868 20.2544 23.6126C21.5107 22.9384 22.5806 21.9637 23.3688 20.7756C23.3328 18.3876 18.5567 17.0796 16.1687 17.0796C13.7687 17.0796 9.00475 18.3876 8.96875 20.7756C9.75688 21.9637 10.8268 22.9384 12.0831 23.6126Z" fill="white"/>
</svg>
