<svg width="28" height="24" viewBox="0 0 28 24" fill="none" xmlns="http://www.w3.org/2000/svg">
<path d="M23.3667 5.66732C23.134 5.26428 22.7999 4.92916 22.3976 4.69525C21.9952 4.46134 21.5387 4.33679 21.0733 4.33398H17.8333V1.66732C17.8333 1.3137 17.6929 0.974557 17.4428 0.724509C17.1928 0.47446 16.8536 0.333984 16.5 0.333984H3.16667C2.45942 0.333984 1.78115 0.614936 1.28105 1.11503C0.780951 1.61513 0.5 2.29341 0.5 3.00065V16.334C0.50048 16.8016 0.623924 17.2609 0.857949 17.6658C1.09197 18.0706 1.42835 18.4068 1.83333 18.6407C1.78559 19.8783 2.23148 21.0843 3.07289 21.9932C3.9143 22.9021 5.08232 23.4396 6.32 23.4873C7.55768 23.5351 8.76363 23.0892 9.67255 22.2478C10.5815 21.4063 11.1189 20.2383 11.1667 19.0007H15.3C15.4474 20.1163 15.9953 21.1403 16.8415 21.882C17.6877 22.6238 18.7747 23.0327 19.9 23.0327C21.0253 23.0327 22.1123 22.6238 22.9585 21.882C23.8047 21.1403 24.3526 20.1163 24.5 19.0007C25.2072 19.0007 25.8855 18.7197 26.3856 18.2196C26.8857 17.7195 27.1667 17.0412 27.1667 16.334V12.334C27.1646 12.0907 27.1003 11.8521 26.98 11.6407L23.3667 5.66732ZM17.8333 7.00065H21.0733L23.4733 11.0007H17.8333V7.00065ZM6.5 20.334C6.10444 20.334 5.71776 20.2167 5.38886 19.9969C5.05996 19.7772 4.80362 19.4648 4.65224 19.0993C4.50087 18.7339 4.46126 18.3318 4.53843 17.9438C4.6156 17.5558 4.80608 17.1995 5.08579 16.9198C5.36549 16.6401 5.72186 16.4496 6.10982 16.3724C6.49778 16.2952 6.89991 16.3349 7.26537 16.4862C7.63082 16.6376 7.94318 16.8939 8.16294 17.2228C8.3827 17.5517 8.5 17.9384 8.5 18.334C8.5 18.8644 8.28929 19.3731 7.91421 19.7482C7.53914 20.1233 7.03043 20.334 6.5 20.334ZM19.8333 20.334C19.4378 20.334 19.0511 20.2167 18.7222 19.9969C18.3933 19.7772 18.1369 19.4648 17.9856 19.0993C17.8342 18.7339 17.7946 18.3318 17.8718 17.9438C17.9489 17.5558 18.1394 17.1995 18.4191 16.9198C18.6988 16.6401 19.0552 16.4496 19.4432 16.3724C19.8311 16.2952 20.2332 16.3349 20.5987 16.4862C20.9642 16.6376 21.2765 16.8939 21.4963 17.2228C21.716 17.5517 21.8333 17.9384 21.8333 18.334C21.8333 18.8644 21.6226 19.3731 21.2475 19.7482C20.8725 20.1233 20.3638 20.334 19.8333 20.334Z" fill="#8493AE"/>
</svg>
